<svg xmlns="http://www.w3.org/2000/svg" width="64" height="64" viewBox="0 0 64 64" fill="none">
  <rect x="6" y="6" width="52" height="52" rx="10" fill="#1a1a1a" stroke="#2d2d2d" stroke-width="2"/>
  <path d="M20 36c0-7.732 6.268-14 14-14h6c5.523 0 10 4.477 10 10v8c0 5.523-4.477 10-10 10h-6c-7.732 0-14-6.268-14-14z" fill="#2a2a2a"/>
  <path d="M24 36c0-5.523 4.477-10 10-10h6c3.314 0 6 2.686 6 6v8c0 3.314-2.686 6-6 6h-6c-5.523 0-10-4.477-10-10z" fill="#3a3a3a"/>
  <path d="M36 30h6v6h-6z" fill="#141414"/>
  <circle cx="29" cy="41" r="3" fill="#141414"/>
  <path d="M18 50h28" stroke="#5a5a5a" stroke-width="2" stroke-linecap="round"/>
</svg>
